<?xml version="1.0" standalone="no"?>
<!DOCTYPE svg PUBLIC "-//W3C//DTD SVG 20010904//EN"
 "http://www.w3.org/TR/2001/REC-SVG-20010904/DTD/svg10.dtd">
<svg version="1.0" xmlns="http://www.w3.org/2000/svg"
 width="119.000000pt" height="119.000000pt" viewBox="0 0 119.000000 119.000000"
 preserveAspectRatio="xMidYMid meet">
<metadata>
Created by potrace 1.14, written by Peter Selinger 2001-2017
</metadata>
<g transform="translate(0.000000,119.000000) scale(0.100000,-0.100000)"
fill="#000000" stroke="none">
<path d="M456 1065 c3 -33 12 -98 19 -145 36 -212 38 -468 5 -529 -19 -36 -10
-39 53 -20 229 71 347 87 460 63 33 -6 55 -9 50 -5 -4 4 -37 30 -73 56 -83 62
-194 159 -240 209 -19 22 -46 51 -60 66 -34 35 -100 128 -100 140 0 6 -3 10
-8 10 -4 0 -18 21 -31 48 -14 26 -30 54 -37 62 -7 8 -13 17 -13 20 0 5 -11 38
-24 70 -4 8 -4 -12 -1 -45z"/>
<path d="M424 908 c-56 -107 -93 -185 -119 -248 -15 -36 -30 -72 -35 -80 -12
-25 -60 -197 -60 -217 0 -14 2 -15 9 -5 4 8 10 13 12 12 2 -1 18 4 34 10 37
15 140 6 171 -15 20 -13 22 -13 19 3 -2 9 -4 17 -5 17 -16 0 -20 296 -7 425
11 106 15 150 12 150 -2 0 -15 -24 -31 -52z"/>
<path d="M776 359 c-62 -17 -207 -29 -396 -34 -80 -2 -147 -4 -150 -5 -30 -6
230 -98 309 -108 164 -23 240 9 286 120 16 41 12 43 -49 27z"/>
<path d="M198 242 c-16 -2 -28 -6 -28 -10 0 -4 12 -8 28 -8 51 -3 87 -11 178
-43 144 -49 240 -62 339 -46 50 8 134 49 157 76 9 11 20 19 25 19 4 -1 9 4 12
10 2 7 0 11 -5 8 -5 -2 -35 -16 -67 -31 -79 -36 -122 -47 -193 -47 -61 -1 -95
4 -184 25 -3 1 -37 11 -76 23 -72 22 -135 30 -186 24z"/>
<path d="M310 146 c30 -13 83 -37 118 -55 34 -17 62 -28 62 -25 0 4 6 2 13 -4
11 -9 119 -9 157 0 25 6 64 29 83 49 23 24 13 24 -21 0 -15 -10 -35 -17 -44
-16 -10 2 -18 0 -18 -4 0 -8 -100 -6 -137 3 -12 2 -31 10 -42 16 -12 6 -21 8
-21 4 0 -3 -11 1 -25 10 -24 16 -134 46 -165 45 -8 0 10 -10 40 -23z"/>
</g>
</svg>
